<?xml version="1.0" encoding="UTF-8" standalone="no"?><!DOCTYPE svg PUBLIC "-//W3C//DTD SVG 1.1//EN" "http://www.w3.org/Graphics/SVG/1.1/DTD/svg11.dtd"><svg width="100%" height="100%" viewBox="0 0 2500 2500" version="1.1" xmlns="http://www.w3.org/2000/svg" xmlns:xlink="http://www.w3.org/1999/xlink" xml:space="preserve" xmlns:serif="http://www.serif.com/" style="fill-rule:evenodd;clip-rule:evenodd;stroke-linejoin:round;stroke-miterlimit:1.41421;"><rect x="0" y="0.002" width="2500" height="2499.99" style="fill:none;"/><path d="M1882.25,2169.83l-632.259,170.243l-632.269,-170.243l-145.901,-1580.65l1556.35,0l-145.92,1580.65Z" style="fill:#2062af;fill-rule:nonzero;"/><path d="M1249.99,717.212l0,1487.08l1.43,0.39l511.661,-137.778l118.101,-1349.69l-631.192,0Z" style="fill:#3c9cd7;fill-rule:nonzero;"/><path d="M891.156,356.952l0,-94.08l137.263,0l0,-102.946l-240.209,0l0,290.967l240.209,0l0,-93.941l-137.263,0Zm384.184,-94.08l95.964,0l0,-102.946l-240.232,0l0,102.946c32.14,32.14 48.902,47.523 95.385,94.006c-27.173,0 -95.385,0.097 -95.385,0.093l0,93.922l240.232,0l0,-93.941l-95.964,-94.08Zm340.485,0l95.96,0l0,-102.946l-240.241,0l0,102.946c32.14,32.14 48.911,47.523 95.394,94.006c-27.164,0 -95.394,0.097 -95.394,0.093l0,93.922l240.246,0l0,-93.941l-95.965,-94.08Z" style="fill:#fff;fill-rule:nonzero;"/><path d="M1249.42,1112.44l-452.529,188.466l15.007,186.596l437.522,-187.069l465.411,-198.985l19.296,-190.88l-484.707,201.872Z" style="fill:#fff;fill-rule:nonzero;"/><path d="M796.891,1300.9l15.006,186.596l437.523,-187.069l0,-187.993l-452.529,188.466Z" style="fill:url(#_Linear1);fill-rule:nonzero;"/><path d="M1734.13,910.571l-484.707,201.867l0,187.993l465.411,-198.985l19.296,-190.875Z" style="fill:url(#_Linear2);fill-rule:nonzero;"/><path d="M797.587,1300.9l15.011,186.596l671.321,2.14l-15.016,248.791l-220.904,62.191l-212.353,-53.617l-12.867,-154.424l-197.314,0l25.739,298.12l398.94,117.957l396.776,-115.817l51.478,-591.937l-900.811,0Z" style="fill:url(#_Linear3);fill-rule:nonzero;"/><path d="M1249.42,1300.9l-452.529,0l15.007,186.596l437.522,1.397l0,-187.993Zm0,499.124l-2.144,0.599l-212.325,-53.618l-12.867,-154.423l-197.31,0l25.735,298.12l398.911,117.957l0,-208.635Z" style="fill-opacity:0.05;fill-rule:nonzero;"/><path d="M756.14,910.571l977.991,0l-19.296,190.88l-935.105,0l-23.59,-190.88Z" style="fill:url(#_Linear4);fill-rule:nonzero;"/><path d="M1249.42,910.571l-493.284,0l23.59,190.88l469.694,0l0,-190.88Z" style="fill-opacity:0.05;fill-rule:nonzero;"/><defs><linearGradient id="_Linear1" x1="0" y1="0" x2="1" y2="0" gradientUnits="userSpaceOnUse" gradientTransform="matrix(2.29659e-14,-375.062,375.062,2.29659e-14,1023.16,1487.5)"><stop offset="0" style="stop-color:#d1d3d4;stop-opacity:0"/><stop offset="0.39" style="stop-color:#d1d3d4;stop-opacity:0"/><stop offset="1" style="stop-color:#d1d3d4;stop-opacity:1"/></linearGradient><linearGradient id="_Linear2" x1="0" y1="0" x2="1" y2="0" gradientUnits="userSpaceOnUse" gradientTransform="matrix(2.38721e-14,-389.86,389.86,2.38721e-14,1491.77,1300.43)"><stop offset="0" style="stop-color:#d1d3d4;stop-opacity:0"/><stop offset="0.39" style="stop-color:#d1d3d4;stop-opacity:0"/><stop offset="1" style="stop-color:#d1d3d4;stop-opacity:1"/></linearGradient><linearGradient id="_Linear3" x1="0" y1="0" x2="1" y2="0" gradientUnits="userSpaceOnUse" gradientTransform="matrix(900.807,0,0,900.807,797.587,1654.78)"><stop offset="0" style="stop-color:#e8e7e5;stop-opacity:1"/><stop offset="1" style="stop-color:#fff;stop-opacity:1"/></linearGradient><linearGradient id="_Linear4" x1="0" y1="0" x2="1" y2="0" gradientUnits="userSpaceOnUse" gradientTransform="matrix(977.986,0,0,977.986,756.14,1006.01)"><stop offset="0" style="stop-color:#e8e7e5;stop-opacity:1"/><stop offset="1" style="stop-color:#fff;stop-opacity:1"/></linearGradient></defs></svg>