<?xml version="1.0" encoding="UTF-8" standalone="no"?><!DOCTYPE svg PUBLIC "-//W3C//DTD SVG 1.1//EN" "http://www.w3.org/Graphics/SVG/1.1/DTD/svg11.dtd"><svg width="100%" height="100%" viewBox="0 0 2500 713" version="1.1" xmlns="http://www.w3.org/2000/svg" xmlns:xlink="http://www.w3.org/1999/xlink" xml:space="preserve" xmlns:serif="http://www.serif.com/" style="fill-rule:evenodd;clip-rule:evenodd;stroke-linejoin:round;stroke-miterlimit:1.41421;"><g><path d="M2327.7,295.284c-2.246,0.449 -4.502,5.405 -4.502,8.106c-0.449,18.027 -0.898,65.791 -0.898,98.232c0,0.903 1.347,2.705 2.7,2.705c6.758,0.449 22.979,0.899 36.948,0.899c19.375,0 30.64,-2.701 36.953,-5.401c16.216,-8.115 23.877,-25.688 23.877,-45.068c0,-43.701 -30.639,-60.376 -76.152,-60.376c-3.154,-0.449 -12.158,-0.449 -18.926,0.903Zm116.26,201.416c0,-44.609 -32.896,-69.394 -92.373,-69.394c-2.705,0 -21.631,-0.45 -26.138,0.449c-1.352,0.454 -3.149,1.357 -3.149,2.71c0,31.987 -0.454,82.91 0.898,102.734c0.899,8.56 7.212,20.728 14.873,24.331c8.106,4.507 26.582,5.406 39.2,5.406c35.595,0 66.689,-19.825 66.689,-66.236Zm-208.174,-226.196c4.502,0 18.018,1.348 52.715,1.348c32.895,0 59.028,-0.899 91.02,-0.899c39.2,0 93.272,13.965 93.272,72.544c0,28.838 -20.278,51.821 -46.86,63.086c-1.348,0.449 -1.348,1.348 0,1.797c37.846,9.468 71.196,32.895 71.196,77.051c0,43.261 -27.036,70.747 -66.24,87.871c-23.882,10.361 -53.618,13.965 -83.809,13.965c-22.983,0 -84.712,-2.701 -118.955,-1.797c-3.604,-1.358 3.154,-17.578 6.304,-20.279c8.115,-0.454 14.419,-0.903 22.983,-3.608c12.168,-3.149 13.516,-6.758 15.317,-25.229c0.904,-15.772 0.904,-71.651 0.904,-111.299c0,-54.522 0.454,-91.47 0,-109.493c-0.449,-13.964 -5.405,-18.476 -15.318,-21.181c-7.666,-1.348 -20.278,-3.154 -30.644,-4.502c-2.256,-2.256 5.405,-17.578 8.115,-19.375Zm-260,280.268c10.82,8.555 31.997,12.159 50.923,12.159c24.331,0 48.662,-4.497 72.095,-25.684c23.882,-21.621 40.551,-54.966 40.551,-108.135c0,-50.923 -19.375,-92.378 -59.028,-116.704c-22.529,-13.974 -51.367,-19.824 -84.712,-19.824c-9.912,0 -19.375,0.449 -25.229,3.149c-1.358,0.904 -4.507,4.956 -4.507,7.207c-0.903,9.014 -0.903,78.404 -0.903,118.96c0,41.905 0,100.484 0.903,107.242c0,6.762 3.149,17.124 9.912,21.63l-0.005,0Zm-102.285,-280.273c8.564,0 41.455,1.353 57.227,1.353c28.393,0 48.667,-1.348 102.285,-1.348c45.058,0 82.91,12.163 109.946,35.142c32.891,28.388 50.02,67.592 50.02,115.351c0,68.042 -31.094,107.246 -62.188,129.775c-31.084,22.979 -71.641,36.495 -129.316,36.495c-30.64,0 -83.36,-0.899 -127.071,-1.353l-0.449,0c-2.251,-4.053 3.604,-19.824 7.207,-20.273c11.719,-1.353 14.873,-1.807 20.733,-4.053c9.458,-3.609 11.264,-8.565 12.617,-25.234c1.347,-31.094 0.898,-68.492 0.898,-110.85c0,-30.186 0.449,-89.219 -0.454,-108.145c-1.348,-15.766 -8.105,-19.824 -21.626,-22.529c-6.758,-1.348 -15.771,-3.154 -28.384,-4.502c-1.806,-3.159 6.304,-17.124 8.555,-19.824l0,-0.005Z" style="fill:#a7865f;"/><path d="M1328.29,568.341c-11.265,-1.353 -19.375,-3.15 -29.287,-7.656c-1.353,-0.904 -3.608,-5.406 -3.608,-7.212c-0.899,-15.772 -0.899,-60.83 -0.899,-91.016c0,-24.336 -4.053,-45.513 -14.419,-60.381c-12.168,-17.129 -29.736,-27.036 -52.27,-27.036c-19.824,0 -46.411,13.516 -68.491,32.441c-0.45,0.45 -4.053,3.609 -3.604,-1.352c0,-4.956 0.903,-14.868 1.353,-21.631c0.454,-6.309 -3.155,-9.458 -3.155,-9.458c-14.419,7.207 -54.97,16.67 -69.843,18.018c-10.811,2.26 -13.516,12.622 -2.247,16.225l0.45,0c12.158,3.604 20.273,7.661 26.577,11.719c4.507,3.603 4.057,8.56 4.057,12.617c0.45,33.789 0.45,85.61 -0.898,113.999c-0.449,11.265 -3.604,15.318 -11.719,17.119l0.904,-0.449c-6.309,1.353 -11.265,2.7 -18.926,3.604c-2.705,2.705 -2.705,17.124 0,20.278c4.956,0 31.089,-1.353 52.724,-1.353c29.737,0 45.059,1.353 52.715,1.353c3.154,-3.604 4.058,-17.124 2.256,-20.278c-8.564,-0.45 -14.873,-1.348 -20.727,-3.155c-8.111,-1.806 -10.367,-5.854 -10.821,-15.317c-0.893,-23.887 -0.893,-74.351 -0.893,-108.594c0,-9.463 2.7,-13.97 5.4,-16.675c10.366,-9.008 27.041,-15.317 41.909,-15.317c14.419,0 23.877,4.507 31.089,10.366c9.912,8.106 13.066,19.824 14.419,28.384c2.251,19.375 1.353,57.676 1.353,91.02c0,18.023 -1.353,22.53 -8.106,24.781c-3.159,1.352 -11.269,3.159 -20.732,4.053c-3.155,3.159 -2.251,17.128 0,20.283c13.066,0 28.388,-1.353 50.918,-1.353c27.934,0 45.962,1.353 53.173,1.353c2.247,-2.705 3.15,-15.772 1.348,-19.38Zm124.815,-172.119c-23.877,0 -38.75,18.471 -38.75,47.304c0,29.292 13.066,63.086 50.014,63.086c6.309,0 18.028,-2.705 23.428,-9.013c8.564,-8.106 14.424,-24.331 14.424,-41.455c0,-37.398 -18.477,-59.927 -49.116,-59.927l0,0.005Zm-3.155,199.155c-9.009,0 -15.322,2.705 -19.375,4.961c-18.925,12.158 -27.485,23.877 -27.485,37.851c0,13.062 4.956,23.423 15.771,32.437c13.067,11.265 31.089,16.675 54.068,16.675c45.962,0 66.24,-24.785 66.24,-49.112c0,-17.128 -8.564,-28.393 -26.133,-34.697c-12.617,-5.41 -35.595,-8.115 -63.086,-8.115Zm3.155,117.158c-27.486,0 -47.315,-5.859 -64.434,-18.926c-16.675,-12.617 -23.882,-31.543 -23.882,-44.609c0,-3.604 0.903,-13.521 9.014,-22.529c4.951,-5.41 15.771,-15.772 41.455,-33.345c0.898,-0.449 1.348,-0.898 1.348,-1.807c0,-0.898 -0.904,-1.801 -1.802,-2.246c-21.177,-8.11 -27.486,-21.181 -29.292,-28.388l0,-0.904c-0.445,-2.705 -1.348,-5.405 2.71,-8.11c3.154,-2.251 7.661,-4.956 12.612,-8.106c7.661,-4.511 15.772,-9.467 20.728,-13.525c0.903,-0.898 0.903,-1.797 0.903,-2.7c0,-0.903 -0.903,-1.807 -1.807,-2.251c-31.533,-10.366 -47.304,-33.799 -47.304,-68.945c0,-22.979 10.361,-43.706 28.833,-56.773c12.617,-9.912 44.16,-22.08 64.887,-22.08l1.353,0c21.177,0.449 32.89,4.956 49.56,10.815c9.014,3.155 17.579,4.502 29.297,4.502c17.569,0 25.23,-5.405 31.533,-11.709c0.455,0.899 1.358,3.155 1.807,9.009c0.449,5.86 -1.352,14.419 -5.859,20.728c-3.604,4.956 -11.714,8.564 -19.824,8.564l-2.256,0c-8.111,-0.903 -11.719,-1.806 -11.719,-1.806l-1.797,0.903c-0.449,0.903 0,1.802 0.449,3.154l0.454,0.903c0.899,4.053 2.701,16.216 2.701,19.375c0,36.949 -14.869,53.165 -30.64,65.333c-15.322,11.264 -32.891,18.471 -52.72,20.278c-0.449,0 -2.246,0 -6.308,0.449c-2.251,0 -5.406,0.454 -5.86,0.454l-0.449,0c-3.604,0.899 -12.612,5.405 -12.612,13.062c0,6.758 4.052,14.873 23.427,16.225c4.053,0.449 8.106,0.449 12.618,0.904c25.683,1.796 57.675,4.052 72.544,9.008c20.727,7.657 33.794,26.133 33.794,48.213c0,33.35 -23.877,64.439 -63.531,83.809c-19.375,8.564 -38.755,13.071 -59.931,13.071Zm256.836,-314.062c-9.458,0 -18.023,2.246 -24.332,6.753c-17.568,10.815 -26.582,32.446 -26.582,63.984c0,59.033 29.737,100.488 72.095,100.488c12.617,0 22.529,-3.608 31.089,-10.815c13.066,-10.82 19.829,-32.446 19.829,-62.637c0,-58.574 -29.292,-97.778 -72.095,-97.778l-0.004,0.005Zm8.115,192.851c-76.602,0 -104.087,-56.323 -104.087,-109.043c0,-36.948 14.868,-65.337 44.604,-85.615c21.182,-13.066 46.416,-20.273 68.946,-20.273c58.574,0 99.58,41.904 99.58,102.285c0,41.001 -16.221,73.442 -47.315,93.271c-14.868,9.912 -40.551,19.375 -61.733,19.375l0.005,0Zm-802.959,-192.856c-9.463,0 -18.023,2.251 -24.336,6.758c-17.569,10.815 -26.582,32.446 -26.582,63.984c0,59.033 29.736,100.488 72.095,100.488c12.617,0 22.529,-3.608 31.093,-10.815c13.062,-10.82 19.825,-32.446 19.825,-62.637c0,-58.574 -28.838,-97.778 -72.095,-97.778Zm8.11,192.856c-76.601,0 -104.087,-56.323 -104.087,-109.043c0,-36.948 14.868,-65.337 44.605,-85.615c21.181,-13.066 46.416,-20.273 68.945,-20.273c58.579,0 99.58,41.904 99.58,102.285c0,41.001 -16.221,73.442 -47.314,93.271c-14.419,9.912 -40.103,19.375 -61.729,19.375Zm-515.029,-4.507c-0.903,-1.347 -1.807,-5.405 -1.353,-10.361c0,-3.608 0.904,-5.859 1.353,-6.758c9.463,-1.357 14.419,-2.71 19.824,-4.057c9.014,-2.256 12.617,-7.207 13.066,-18.472c1.358,-27.036 1.358,-78.408 0.904,-114.004l0,-0.903c0,-4.053 0,-9.014 -4.956,-12.617c-7.212,-4.502 -15.772,-8.555 -27.036,-11.719c-4.053,-1.343 -6.758,-3.599 -6.309,-6.299c0,-2.705 2.705,-5.859 8.564,-6.763c14.869,-1.352 53.614,-10.81 68.936,-17.573c0.903,0.898 2.256,3.608 2.256,7.212l-0.449,4.951c-0.454,4.961 -0.904,10.82 -0.904,16.675c0,1.802 1.807,3.154 3.604,3.154c0.903,0 1.806,-0.449 2.705,-0.903c28.838,-22.529 54.971,-30.64 68.486,-30.64c22.085,0 39.209,10.366 52.276,31.992c0.898,1.358 1.801,1.807 3.154,1.807c0.898,0 2.246,-0.449 2.7,-1.352c26.587,-20.279 53.174,-32.447 70.742,-32.447c41.905,0 66.69,31.094 66.69,83.814c0,14.868 0,34.243 -0.449,51.821c0,15.767 -0.45,30.186 -0.45,40.552c0,2.246 3.15,9.458 8.106,10.81c6.308,3.155 14.873,4.507 26.137,6.309l0.45,0c0.903,3.154 -0.899,14.868 -2.7,17.124c-2.706,0 -6.763,0 -11.265,-0.449c-11.407,-0.595 -22.826,-0.897 -34.248,-0.904c-27.935,0 -42.354,0.45 -56.328,1.353c-0.894,-3.604 -1.348,-14.419 0,-17.124c8.115,-1.348 12.168,-2.705 17.129,-4.053c9.013,-2.705 11.264,-6.763 11.718,-18.476c0,-8.56 1.797,-81.558 -0.908,-99.131c-2.7,-18.023 -16.221,-39.199 -45.962,-39.199c-11.264,0 -28.833,4.506 -45.957,17.568c-0.898,0.903 -1.806,3.154 -1.806,4.507l0,0.454c1.806,9.458 1.806,20.278 1.806,36.948l0,29.287c0,20.278 -0.454,39.204 0,53.618c0,9.917 5.86,12.168 10.816,13.975c2.705,0.444 4.502,0.898 6.757,1.348c4.053,0.903 8.111,1.806 14.419,3.154c0.904,1.807 0.904,7.661 -0.449,12.617c-0.454,2.705 -1.357,4.053 -1.806,4.507c-15.318,-0.449 -31.089,-0.903 -54.068,-0.903c-6.758,0 -18.476,0.454 -28.389,0.454c-8.115,0 -15.771,0.449 -20.273,0.449c-0.454,-0.903 -1.357,-4.053 -1.357,-9.014c0,-4.052 0.903,-7.207 1.806,-8.11c2.251,-0.449 4.053,-0.899 6.309,-0.899c5.4,-0.903 9.912,-1.806 14.414,-2.705c7.666,-2.251 10.366,-6.308 10.815,-16.22c1.353,-22.53 2.705,-86.963 -0.449,-103.189c-5.405,-26.133 -20.273,-39.199 -44.16,-39.199c-13.965,0 -31.543,6.758 -45.957,17.578c-2.256,1.797 -4.058,6.299 -4.058,10.357l0,26.586c0,32.442 0,72.999 0.45,90.572c0.454,5.4 2.251,11.714 12.617,13.965c2.256,0.449 5.859,1.352 10.366,1.806l8.105,1.348c0.909,2.705 0.455,13.52 -1.347,17.124c-4.507,0 -9.912,-0.449 -16.226,-0.449c-9.458,-0.454 -21.626,-0.904 -35.141,-0.904c-15.772,0 -27.037,0.45 -36.05,0.904c-6.309,-0.904 -11.265,-0.904 -16.67,-0.904Z" style="fill:#875943;"/><path d="M171.157,694.962l-18.471,-6.314c0,0 2.255,-94.169 -31.543,-100.927c-22.525,-26.138 3.613,-1108.46 84.716,-3.609c0,0 -27.939,13.965 -32.895,37.852c-5.41,23.432 -1.807,72.998 -1.807,72.998Z" style="fill:#fff;"/><path d="M171.157,694.962l-18.471,-6.314c0,0 2.255,-94.169 -31.543,-100.927c-22.525,-26.138 3.613,-1108.46 84.716,-3.609c0,0 -27.939,13.965 -32.895,37.852c-5.41,23.432 -1.807,72.998 -1.807,72.998Z" style="fill:#a6a385;"/><path d="M181.074,603.941c0,0 161.768,-106.342 123.911,-327.587c-36.494,-160.855 -122.558,-213.575 -132.021,-233.853c-10.361,-14.419 -20.278,-39.648 -20.278,-39.648l6.762,447.431c0,0.454 -13.969,136.983 21.631,153.662" style="fill:#fff;"/><path d="M181.074,603.941c0,0 161.768,-106.342 123.911,-327.587c-36.494,-160.855 -122.558,-213.575 -132.021,-233.853c-10.361,-14.419 -20.278,-39.648 -20.278,-39.648l6.762,447.431c0,0.454 -13.969,136.983 21.631,153.662" style="fill:#499d4a;"/><path d="M143.228,609.796c0,0 -151.856,-103.638 -142.842,-286.123c8.559,-182.49 115.801,-272.158 136.528,-288.379c13.521,-14.419 13.97,-19.829 14.873,-34.248c9.463,20.278 7.661,303.252 9.009,336.592c4.053,128.418 -7.207,247.832 -17.568,272.158Z" style="fill:#fff;"/><path d="M143.228,609.796c0,0 -151.856,-103.638 -142.842,-286.123c8.559,-182.49 115.801,-272.158 136.528,-288.379c13.521,-14.419 13.97,-19.829 14.873,-34.248c9.463,20.278 7.661,303.252 9.009,336.592c4.053,128.418 -7.207,247.832 -17.568,272.158Z" style="fill:#58aa50;"/></g></svg>