<?xml version="1.0" encoding="UTF-8" standalone="no"?><!DOCTYPE svg PUBLIC "-//W3C//DTD SVG 1.1//EN" "http://www.w3.org/Graphics/SVG/1.1/DTD/svg11.dtd"><svg width="100%" height="100%" viewBox="0 0 2500 2246" version="1.1" xmlns="http://www.w3.org/2000/svg" xmlns:xlink="http://www.w3.org/1999/xlink" xml:space="preserve" xmlns:serif="http://www.serif.com/" style="fill-rule:evenodd;clip-rule:evenodd;stroke-linejoin:round;stroke-miterlimit:1.41421;"><path d="M1963.11,778.034c238.343,82.065 392.308,210.562 392.308,343.423c0,138.578 -164.573,274.071 -417.532,357.876c-13.368,4.433 -27.069,8.691 -41.033,12.812c4.98,20.038 9.423,39.715 13.232,58.982c49.939,252.245 11.484,459.57 -106.871,528.083c-114.594,66.335 -299.802,1.172 -487.333,-160.198c-20.384,-17.583 -40.273,-35.731 -59.646,-54.422c-15.38,14.873 -30.741,29.061 -46.043,42.44c-193.605,169.231 -392.425,239.443 -510.887,171.135c-114.692,-66.159 -150.736,-259.149 -104.585,-502.205c5.043,-26.415 10.823,-52.684 17.333,-78.776c-20.04,-5.721 -39.935,-11.94 -59.665,-18.652c-243.33,-83.161 -403.48,-220.323 -403.48,-357.075c0,-132.397 149.193,-260.048 382.797,-341.49c26.112,-9.101 53.406,-17.655 81.666,-25.682c-6.054,-24.219 -11.491,-48.588 -16.307,-73.083c-48.407,-247.353 -14.346,-445.03 100.65,-511.6c119.926,-69.421 319.654,5.127 518.913,182.053c12.395,11.03 24.584,22.288 36.561,33.768c17.886,-17.266 36.205,-34.077 54.94,-50.417c190.128,-165.453 378.382,-234.668 493.485,-168.284c120.053,69.215 155.208,279.48 101.441,540.485c-3.36,16.215 -7.019,32.366 -10.976,48.445c23.836,6.856 47.496,14.31 71.032,22.382Zm-145.492,791.402c-3.458,-17.461 -7.457,-35.239 -11.943,-53.376c-91.393,21.122 -192.17,36.6 -298.845,46.062c-60.642,87.79 -122.778,166.849 -184.953,234.854c18.573,17.87 37.098,34.764 55.486,50.584c160.364,138.002 309.079,190.324 378.617,150.071c32.674,-18.915 59.099,-66.139 72.243,-136.976c14.625,-78.815 11.476,-179.63 -10.605,-291.219Zm-916.466,421.243c-67.936,23.993 -122.045,24.676 -154.749,5.82c-69.606,-40.135 -98.531,-195.109 -59.07,-402.962c4.693,-24.564 10.066,-48.993 16.113,-73.259c90.377,19.99 190.422,34.374 297.351,43.045c61.042,85.905 124.975,164.867 189.406,234.014c-13.693,13.246 -27.711,26.153 -42.039,38.709c-85.612,74.841 -171.4,127.925 -247.002,154.633l-0.01,0Zm354.673,-261.171c-44.676,-48.211 -89.234,-101.529 -132.758,-158.88c42.244,1.66 85.319,2.5 129.096,2.5c44.979,0 89.44,-1.006 133.198,-2.959c-42.967,58.396 -86.354,111.792 -129.536,159.339Zm304.255,-428.517c-33.424,58.063 -68.728,115.024 -105.855,170.793c-65.466,4.678 -133.119,7.09 -202.062,7.09c-68.659,0 -135.453,-2.139 -199.777,-6.309c-38.09,-55.638 -74.061,-112.698 -107.837,-171.057c-33.618,-58.049 -65.02,-117.353 -94.137,-177.785c29.043,-60.451 60.35,-119.787 93.854,-177.884l0,0.02c33.493,-58.109 69.181,-114.925 106.988,-170.325c65.622,-4.961 132.904,-7.558 200.919,-7.558c68.317,0 135.688,2.617 201.29,7.617c37.424,55.314 72.884,111.933 106.314,169.748c33.619,57.968 65.344,117.013 95.123,177.044c-29.473,60.642 -61.096,120.215 -94.81,178.606l-0.01,0Zm-627.835,161.057c-24.016,-37.261 -47.1,-75.021 -69.275,-113.315c-21.744,-37.563 -42.602,-75.632 -62.556,-114.175c-28.036,66.501 -52.038,131.889 -71.52,194.796c62.937,13.701 131.088,24.628 203.351,32.694l0,0Zm773.483,-230.879c-20.486,39.486 -41.809,78.442 -63.991,116.909c-21.834,37.873 -44.419,75.307 -67.742,112.281c72.781,-8.73 141.85,-20.487 205.832,-35.086c-19.737,-61.816 -44.586,-126.822 -74.099,-194.104Zm-1122.85,158.168c18.065,6.144 36.202,11.821 54.47,17.05c27.87,-90.866 64.607,-186.262 108.882,-282.635c-43.709,-94.957 -79.928,-188.859 -107.544,-278.67c-25.543,7.222 -50.868,15.191 -75.944,23.895c-199.787,69.656 -319.577,172.142 -319.577,252.48c0,37.762 27.636,84.293 82.36,131.166c60.89,52.134 149.715,99.914 257.353,136.714Zm1325.37,0.527c218.437,-72.401 352.915,-183.12 352.915,-268.407c0,-80.075 -124.546,-184.006 -328.736,-254.286c-21.113,-7.275 -43.026,-14.16 -65.593,-20.702c-27.148,87.838 -63.377,180.637 -107.388,275.457c46.111,97.115 83.805,191.125 111.733,279.529c12.585,-3.731 24.937,-7.578 37.059,-11.591l0.01,0Zm-266.893,-491.747c21.945,37.892 43.094,76.15 63.474,114.819c27.909,-65.329 51.609,-129.057 70.622,-190.002c-63.337,-14.462 -130.786,-26.278 -201.193,-35.164c23.155,36.296 45.526,73.087 67.097,110.347l0,0Zm-778.766,0.644c21.701,-37.624 44.242,-74.667 67.643,-111.167c-69.948,8.74 -137.084,20.253 -200.04,34.344c19.179,61.814 42.664,125.825 70.114,190.93c19.858,-38.492 40.612,-76.516 62.283,-114.107Zm891.945,-650.383c-69.474,-39.97 -221.676,16.014 -384.525,157.738c-17.296,15.091 -34.215,30.609 -50.74,46.541c63.063,67.946 125.883,146.449 186.515,232.783c104.078,9.765 203.488,25.487 295.027,46.61c3.571,-14.561 6.879,-29.186 9.922,-43.866c46.408,-225.276 17.704,-397.075 -56.199,-439.806Zm-1064.97,414.719c-41.472,-211.934 -13.935,-371.801 55.369,-411.916c73.825,-42.733 237.051,18.202 409.094,170.96c10.996,9.765 22.041,19.989 33.105,30.565c-64.099,68.835 -127.446,147.201 -187.961,232.607c-103.775,9.619 -203.117,25.068 -294.441,45.76c-5.626,-22.531 -10.682,-45.2 -15.166,-67.985l0,0.009Zm563.649,-143.031c43.475,47.098 87.018,99.693 129.848,156.751c-86.881,-4.105 -173.907,-4.125 -260.79,-0.058c42.869,-56.531 86.783,-109.048 130.942,-156.693Z" style="fill:#53c1de;"/><path d="M1252.16,924.424c108.824,0 197.033,88.219 197.033,197.033c0,108.824 -88.209,197.043 -197.033,197.043c-108.814,0 -197.033,-88.219 -197.033,-197.043c0,-108.814 88.219,-197.033 197.033,-197.033" style="fill:#53c1de;fill-rule:nonzero;"/></svg>